<svg width="25" height="28" viewBox="0 0 25 28" fill="none" xmlns="http://www.w3.org/2000/svg">
    <path d="M3 17C3 19.1756 3.64514 21.3023 4.85383 23.1113C6.06253 24.9202 7.78049 26.3301 9.79048 27.1627C11.8005 27.9952 14.0122 28.2131 16.146 27.7886C18.2798 27.3642 20.2398 26.3166 21.7782 24.7782C23.3166 23.2398 24.3642 21.2798 24.7886 19.146C25.2131 17.0122 24.9952 14.8005 24.1627 12.7905C23.3301 10.7805 21.9202 9.06253 20.1113 7.85383C18.3023 6.64514 16.1756 6 14 6L14 9.00136C15.582 9.00136 17.1284 9.47047 18.4438 10.3494C19.7592 11.2283 20.7844 12.4775 21.3898 13.9391C21.9952 15.4006 22.1536 17.0089 21.845 18.5605C21.5363 20.112 20.7745 21.5373 19.6559 22.6559C18.5373 23.7745 17.112 24.5363 15.5605 24.845C14.0089 25.1536 12.4006 24.9952 10.9391 24.3898C9.47749 23.7844 8.22827 22.7592 7.34937 21.4438C6.47047 20.1284 6.00136 18.582 6.00136 17L3 17Z" fill="#69C673"/>
    <path d="M0 3C0 1.89543 0.895431 1 2 1H9.61448C10.1572 1 10.6533 1.30662 10.896 1.79203C10.9649 1.92978 11.0555 2.05552 11.1644 2.16441L12 3L12.8356 3.83559C12.9445 3.94448 13.0702 4.03511 13.208 4.10398L13.5528 4.27639C13.8269 4.41343 14 4.69357 14 5V10V17C14 18.1046 13.1046 19 12 19H2C0.89543 19 0 18.1046 0 17V3Z" fill="#E53935"/>
    <path d="M5.60254 11.1919C5.60254 11.7547 5.4738 12.2082 5.21631 12.5522C4.95882 12.8963 4.61019 13.0684 4.17041 13.0684C3.72152 13.0684 3.36833 12.9259 3.11084 12.6411V14.4219H2.47852V9.30176H3.05615L3.08691 9.71191C3.3444 9.3929 3.70215 9.2334 4.16016 9.2334C4.60449 9.2334 4.9554 9.40088 5.21289 9.73584C5.47266 10.0708 5.60254 10.5368 5.60254 11.1338V11.1919ZM4.97021 11.1201C4.97021 10.7031 4.88135 10.3739 4.70361 10.1323C4.52588 9.89079 4.28206 9.77002 3.97217 9.77002C3.58936 9.77002 3.30225 9.93978 3.11084 10.2793V12.0464C3.29997 12.3836 3.58936 12.5522 3.979 12.5522C4.28206 12.5522 4.52246 12.4326 4.7002 12.1934C4.88021 11.9518 4.97021 11.5941 4.97021 11.1201ZM6.25537 11.1201C6.25537 10.5527 6.38981 10.097 6.65869 9.75293C6.92757 9.40658 7.27962 9.2334 7.71484 9.2334C8.14779 9.2334 8.49072 9.38151 8.74365 9.67773V7.75H9.37598V13H8.79492L8.76416 12.6035C8.51123 12.9134 8.15918 13.0684 7.70801 13.0684C7.27962 13.0684 6.92985 12.8929 6.65869 12.542C6.38981 12.1911 6.25537 11.7331 6.25537 11.168V11.1201ZM6.8877 11.1919C6.8877 11.6112 6.97428 11.9393 7.14746 12.1763C7.32064 12.4132 7.5599 12.5317 7.86523 12.5317C8.26628 12.5317 8.55908 12.3517 8.74365 11.9917V10.293C8.55452 9.94434 8.264 9.77002 7.87207 9.77002C7.56217 9.77002 7.32064 9.88965 7.14746 10.1289C6.97428 10.3682 6.8877 10.7225 6.8877 11.1919ZM10.6714 13V9.79053H10.0869V9.30176H10.6714V8.92236C10.6714 8.52588 10.7773 8.2194 10.9893 8.00293C11.2012 7.78646 11.5008 7.67822 11.8882 7.67822C12.034 7.67822 12.1787 7.69759 12.3223 7.73633L12.2881 8.24902C12.181 8.22852 12.0671 8.21826 11.9463 8.21826C11.7412 8.21826 11.5828 8.27865 11.4712 8.39941C11.3595 8.5179 11.3037 8.6888 11.3037 8.91211V9.30176H12.0933V9.79053H11.3037V13H10.6714Z" fill="white"/>
    <rect x="16.8407" y="8" width="6.01228" height="3" transform="rotate(71.245 16.8407 8)" fill="#69C673"/>
    <rect x="21.6129" y="5.72424" width="7" height="3" transform="rotate(155.241 21.6129 5.72424)" fill="#69C673"/>
    <path d="M9.75 1H10.25V1.5H9.75V1Z" fill="#EC3030"/>
    <path d="M10.1544 6.01874C9.59286 6.02086 9.13965 5.56023 9.15088 4.99876L9.21116 1.98317C9.22916 1.08278 10.3349 0.663134 10.9458 1.32488L13.7195 4.3298C14.3096 4.96905 13.8585 6.0048 12.9885 6.00807L10.1544 6.01874Z" fill="#AB000D"/>
</svg>
